HIERARCHY
ROOT Hips
{
	OFFSET 0.0000 0.0000 0.0000
	CHANNELS 6 Xposition Yposition Zposition Zrotation Xrotation Yrotation
	JOINT Ab
	{
		OFFSET -0.0000 8.1305 -0.0000
		CHANNELS 3 Zrotation Xrotation Yrotation
		JOINT Chest
		{
			OFFSET -0.0000 26.2902 -0.0000
			CHANNELS 3 Zrotation Xrotation Yrotation
			JOINT Neck
			{
				OFFSET -0.0000 26.2902 0.0000
				CHANNELS 3 Zrotation Xrotation Yrotation
				JOINT Head
				{
					OFFSET -0.0000 10.8167 0.0000
					CHANNELS 3 Zrotation Xrotation Yrotation
					End Site
					{
						OFFSET -0.0000 16.7167 0.0000
					}
				}
			}
			JOINT LeftCollar
			{
				OFFSET -0.0000 26.2902 0.0000
				CHANNELS 3 Zrotation Xrotation Yrotation
				JOINT LeftShoulder
				{
					OFFSET 19.6667 -0.0000 0.0000
					CHANNELS 3 Zrotation Xrotation Yrotation
					JOINT LeftElbow
					{
						OFFSET 27.2190 0.0000 0.0000
						CHANNELS 3 Zrotation Xrotation Yrotation
						JOINT LeftWrist
						{
							OFFSET 30.7431 0.0000 0.0000
							CHANNELS 3 Zrotation Xrotation Yrotation
							End Site
							{
								OFFSET 0.0000 -14.7500 0.0000
							}
						}
					}
				}
			}
			JOINT RightCollar
			{
				OFFSET -0.0000 26.2902 0.0000
				CHANNELS 3 Zrotation Xrotation Yrotation
				JOINT RightShoulder
				{
					OFFSET -19.6667 0.0000 0.0000
					CHANNELS 3 Zrotation Xrotation Yrotation
					JOINT RightElbow
					{
						OFFSET -27.2190 0.0000 0.0000
						CHANNELS 3 Zrotation Xrotation Yrotation
						JOINT RightWrist
						{
							OFFSET -30.7431 0.0000 0.0000
							CHANNELS 3 Zrotation Xrotation Yrotation
							End Site
							{
								OFFSET -0.0000 -14.7500 0.0000
							}
						}
					}
				}
			}
		}
	}
	JOINT LeftHip
	{
		OFFSET 11.8000 0.0000 0.0000
		CHANNELS 3 Zrotation Xrotation Yrotation
		JOINT LeftKnee
		{
			OFFSET -0.0000 -39.7832 0.0000
			CHANNELS 3 Zrotation Xrotation Yrotation
			JOINT LeftAnkle
			{
				OFFSET -0.0000 -41.7317 0.0000
				CHANNELS 3 Zrotation Xrotation Yrotation
				End Site
				{
					OFFSET -0.0000 -4.9167 16.7167
				}
			}
		}
	}
	JOINT RightHip
	{
		OFFSET -11.8000 0.0000 0.0000
		CHANNELS 3 Zrotation Xrotation Yrotation
		JOINT RightKnee
		{
			OFFSET -0.0000 -39.7832 0.0000
			CHANNELS 3 Zrotation Xrotation Yrotation
			JOINT RightAnkle
			{
				OFFSET -0.0000 -41.7317 0.0000
				CHANNELS 3 Zrotation Xrotation Yrotation
				End Site
				{
					OFFSET -0.0000 -4.9167 16.7167
				}
			}
		}
	}
}
MOTION
Frames: 17
Frame Time: 0.010000
-19.0323 96.9135 175.8014 358.2598 357.4324 177.1818 357.8859 348.2202 359.9124 2.7126 10.6772 359.8751 357.5812 356.1293 2.2246 358.9936 3.2498 2.3367 339.7143 357.2926 15.1171 320.6843 59.9881 337.0599 8.8787 357.3329 326.5602 90.6057 355.6712 345.4954 27.4364 355.8373 343.1406 46.3087 44.6509 2.0048 339.4445 354.1097 31.7781 269.2889 354.5322 7.5391 355.9521 2.8939 1.7689 358.1669 7.5280 3.6601 355.6237 351.2780 15.7326 358.3797 5.7631 10.6046 6.3496 6.7553 8.3073 349.8749 342.8902 313.3541 
-19.0501 96.9112 175.7981 358.2578 357.4037 177.1626 357.8800 348.2056 359.9114 2.7270 10.6906 359.8741 357.5945 356.0760 2.2351 358.9761 3.3038 2.3479 339.7138 357.2788 15.1277 320.7343 60.0001 336.9975 8.9256 357.3175 326.5676 90.6089 355.6844 345.5559 27.4242 355.8755 343.1268 46.2971 44.6375 2.0579 339.4739 354.0898 31.7788 269.3162 354.5240 7.5979 355.9459 2.8665 1.7593 358.1501 7.5320 3.6693 355.6354 351.2706 15.7397 358.3631 5.7210 10.6073 6.3533 6.7797 8.3307 349.9880 342.6959 313.2905 
-19.0700 96.9110 175.7862 358.2583 357.3984 177.1407 357.8871 348.2041 359.9095 2.7259 10.7095 359.8694 357.6043 356.0387 2.2524 358.9742 3.3476 2.3661 339.7281 357.2851 15.0985 320.6448 59.9701 337.0968 8.9135 357.2995 326.5042 91.0328 355.7037 345.7478 27.3963 355.8526 343.1186 46.3277 44.6835 2.0860 339.3897 354.0752 31.7406 269.3513 354.4802 7.5573 355.9317 2.8705 1.7511 358.1481 7.5336 3.6754 355.7162 351.2604 15.7580 358.3487 5.7133 10.6114 6.3561 6.7885 8.3139 349.9975 342.6793 313.3113 
-19.0906 96.9102 175.7746 358.2600 357.3896 177.1129 357.9043 348.1919 359.9100 2.7139 10.7489 359.8679 357.6398 355.9674 2.2705 358.9292 3.4245 2.3855 339.7391 357.2862 15.1056 320.6720 59.9720 337.0640 8.9224 357.2850 326.4850 91.0237 355.7151 345.7671 27.3836 355.8610 343.1144 46.3338 44.6992 2.1011 339.4060 354.0854 31.7543 269.3395 354.5197 7.4938 355.9143 2.8764 1.7413 358.1496 7.5249 3.6977 355.7031 351.2525 15.7807 358.3360 5.7040 10.6297 6.3523 6.7964 8.3114 349.9194 342.8247 313.3761 
-19.1116 96.9085 175.7612 358.2589 357.3764 177.0864 357.9233 348.1727 359.9063 2.6953 10.7907 359.8633 357.6543 355.8919 2.2882 358.9103 3.5065 2.4056 339.7685 357.2817 15.1248 320.6935 59.9957 337.0008 8.9684 357.2887 326.5026 90.9012 355.7090 345.7726 27.3746 355.8590 343.1196 46.3506 44.7046 2.1103 339.3877 354.0794 31.7546 269.3344 354.5130 7.5120 355.8997 2.8825 1.7038 358.1374 7.5057 3.7455 355.7293 351.2486 15.7826 358.3153 5.6906 10.6503 6.3605 6.8042 8.3020 349.9908 342.6994 313.3479 
-19.1314 96.9081 175.7479 358.2529 357.3679 177.0590 357.9166 348.1598 359.9054 2.7030 10.8288 359.8655 357.6755 355.8368 2.3081 358.8915 3.5677 2.4285 339.7672 357.3025 15.1345 320.7481 59.9768 336.9366 8.9125 357.3003 326.5022 90.8907 355.7145 345.7355 27.3545 355.8627 343.1172 46.3600 44.7391 2.1366 339.3715 354.0759 31.7353 269.3439 354.5047 7.4882 355.8798 2.8925 1.6558 358.1271 7.4872 3.8026 355.7226 351.2408 15.7989 358.2951 5.6826 10.6478 6.3543 6.8107 8.3120 350.0248 342.6527 313.3513 
-19.1533 96.9081 175.7354 358.2473 357.3528 177.0317 357.9330 348.1434 359.9017 2.6839 10.8678 359.8586 357.6975 355.7587 2.3249 358.8599 3.6615 2.4474 339.7802 357.2850 15.1626 320.8411 60.0141 336.8159 8.9741 357.2860 326.5285 90.7982 355.6998 345.7491 27.3626 355.8634 343.1098 46.3173 44.7588 2.1849 339.3889 354.0829 31.7260 269.3694 354.4987 7.5325 355.8596 2.8967 1.6009 358.1128 7.4665 3.8633 355.6937 351.2341 15.8234 358.2666 5.6649 10.6732 6.3690 6.8199 8.3178 350.0215 342.6434 313.3462 
-19.1752 96.9074 175.7234 358.2434 357.3400 177.0015 357.8992 348.2036 359.9271 2.7463 10.7616 359.8861 357.6880 355.8251 2.3351 358.8570 3.6581 2.4560 339.7475 357.2831 15.1598 320.7993 60.0427 336.8838 8.9212 357.3063 326.5234 90.8923 355.7231 345.7895 27.3323 355.8488 343.0799 46.3297 44.7985 2.1533 339.3535 354.0874 31.7042 269.4144 354.5031 7.5088 355.8403 2.9250 1.4374 358.0825 7.3968 4.0533 355.7637 351.2592 15.8265 358.2449 5.6479 10.6862 6.3708 6.8327 8.3105 350.0437 342.6142 313.3613 
-19.1985 96.9060 175.7112 358.2390 357.3255 176.9749 357.8946 348.2281 359.9356 2.7551 10.7243 359.8931 357.7371 355.8229 2.3404 358.8245 3.6940 2.4611 339.7496 357.2731 15.1552 320.8387 60.0858 336.8391 8.9383 357.3021 326.5520 90.7670 355.6485 345.6880 27.3213 355.8560 343.0531 46.3584 44.7842 2.1276 339.3817 354.0960 31.7060 269.3390 354.5165 7.5140 355.8246 2.9689 1.1191 358.0239 7.2936 4.3619 355.8276 351.2879 15.8581 358.2179 5.6324 10.6975 6.3785 6.8381 8.2961 350.0640 342.5946 313.3866 
-19.2207 96.9030 175.6951 358.2374 357.3147 176.9488 357.9149 348.2210 359.9304 2.7289 10.7500 359.8842 357.7481 355.7868 2.3539 358.8427 3.7386 2.4757 339.7706 357.2664 15.1627 320.8761 60.0938 336.7935 8.9353 357.3063 326.5692 90.6727 355.5805 345.5414 27.3145 355.8584 343.0473 46.3733 44.8086 2.1469 339.3712 354.1001 31.6876 269.2922 354.4899 7.4306 355.8126 2.9887 1.0265 357.9975 7.2590 4.4383 355.7661 351.2614 15.8926 358.1934 5.6269 10.7239 6.3871 6.8376 8.2924 350.0857 342.5667 313.3909 
-19.2429 96.8997 175.6782 358.2374 357.3074 176.9185 357.9382 348.2223 359.9189 2.7034 10.7688 359.8794 357.7329 355.7705 2.3795 358.8860 3.7560 2.5011 339.7867 357.2755 15.1864 320.9056 60.0823 336.7467 8.9089 357.3279 326.5743 90.6859 355.5696 345.5239 27.3452 355.8641 343.1138 46.3540 44.7542 2.0891 339.4256 354.1192 31.7246 269.2270 354.4435 7.3178 355.7996 3.0115 0.9462 357.9758 7.2248 4.5231 355.7123 351.2355 15.9122 358.1708 5.6220 10.7385 6.3963 6.8410 8.2931 350.3070 342.4189 313.4098 
-19.2680 96.8979 175.6604 358.2319 357.2942 176.8937 357.9712 348.2188 359.9040 2.6596 10.7831 359.8677 357.7151 355.7592 2.4105 358.9269 3.7747 2.5319 339.8053 357.2786 15.2063 320.9027 60.0754 336.7398 8.9272 357.3203 326.5111 91.2207 355.7081 345.8668 27.3741 355.8616 343.1750 46.3416 44.7219 2.0404 339.4537 354.1102 31.7422 269.2230 354.4336 7.3292 355.7792 3.0184 0.8463 357.9513 7.2104 4.5965 355.7913 351.2140 15.9487 358.1398 5.6097 10.7472 6.4078 6.8540 8.3033 350.3552 342.3661 313.4154 
-19.2922 96.8935 175.6443 358.2327 357.2735 176.8768 358.0104 348.2128 359.8881 2.6156 10.7942 359.8489 357.6928 355.7439 2.4471 358.9743 3.7983 2.5691 339.8185 357.2779 15.2161 320.8936 60.0543 336.7587 8.9354 357.3058 326.4390 91.7348 355.8578 346.1943 27.3900 355.8821 343.1996 46.3215 44.7078 2.0494 339.4880 354.1096 31.7539 269.1985 354.4382 7.3353 355.7695 3.0054 0.7323 357.9205 7.2192 4.6579 355.7111 351.1555 16.0064 358.1172 5.5910 10.7539 6.4193 6.8704 8.3126 350.1191 342.4721 313.3973 
-19.3167 96.8887 175.6304 358.2321 357.2446 176.8531 358.0464 348.1975 359.8758 2.5740 10.8142 359.8391 357.6690 355.7224 2.4876 359.0325 3.8144 2.6093 339.8276 357.2757 15.2323 320.8998 60.0160 336.7606 8.9157 357.3031 326.4220 91.6716 355.8578 346.1644 27.4025 355.8738 343.2362 46.3159 44.7016 2.0416 339.4719 354.1030 31.7526 269.1984 354.4280 7.3161 355.7573 2.9732 0.6198 357.8900 7.2455 4.7411 355.6388 351.1042 16.0570 358.0926 5.5541 10.7760 6.4386 6.8938 8.3072 350.1198 342.4320 313.3865 
-19.3435 96.8858 175.6151 358.2242 357.2162 176.8302 358.0684 348.1796 359.8697 2.5446 10.8437 359.8290 357.6588 355.6843 2.5189 359.0571 3.8456 2.6403 339.8430 357.2719 15.2652 320.9294 60.0139 336.7134 8.9346 357.2990 326.4056 91.6688 355.8651 346.2186 27.4009 355.8695 343.2598 46.3199 44.7197 2.0369 339.4637 354.0927 31.7470 269.2168 354.4381 7.3149 355.7342 2.9314 0.4924 357.8601 7.2900 4.8395 355.7246 351.0729 16.1032 358.0577 5.5190 10.8103 6.4556 6.9194 8.3118 350.1285 342.3924 313.3738 
-19.3712 96.8821 175.5982 358.2167 357.1934 176.8116 358.0631 348.2060 359.8735 2.5543 10.8043 359.8333 357.6613 355.6841 2.5371 359.0554 3.8681 2.6587 339.8528 357.2774 15.2647 320.8327 60.0098 336.8124 8.9420 357.2978 326.3674 91.6107 355.8709 346.1941 27.3852 355.8949 343.2516 46.3326 44.7296 2.0249 339.4806 354.0886 31.7491 269.1978 354.4453 7.3175 355.7089 2.8785 0.3205 357.8271 7.3649 4.9765 355.7475 351.0167 16.1480 358.0280 5.4940 10.8238 6.4611 6.9444 8.3329 350.1395 342.3480 313.3568 
-19.4006 96.8776 175.5821 358.2104 357.1675 176.7948 358.0176 348.2623 359.8993 2.6275 10.7155 359.8663 357.6709 355.7063 2.5301 359.0299 3.8869 2.6518 339.8265 357.2848 15.2361 320.7206 60.0024 336.9489 8.9304 357.2904 326.3207 91.5678 355.8860 346.1454 27.3322 355.8880 343.2076 46.3721 44.7398 2.0067 339.4147 354.0834 31.7340 269.2419 354.4386 7.2654 355.6841 2.8114 0.1198 357.7924 7.4631 5.0767 355.8363 350.9512 16.2481 357.9960 5.4615 10.8507 6.4825 6.9654 8.3143 350.1296 342.3169 313.3454 
